<?xml version="1.0" encoding="UTF-8"?>
<svg id="Calque_2" data-name="Calque 2" xmlns="http://www.w3.org/2000/svg" viewBox="0 0 560.29 559.2">
  <defs>
    <style>
      .cls-1 {
        fill: #d78a79;
        fill-rule: evenodd;
      }
    </style>
  </defs>
  <g id="midground">
    <path class="cls-1" d="M0,278.25c0,50.62,11.86,97.18,36.54,140.19l24.26,35.54c1.29,1.63,2.56,3.03,3.85,4.62,20.49,25.36,46.21,45.8,73.98,62.54,23.9,14.41,59.13,28.27,86.75,32.84,4.58,.76,9.53,2,14.4,2.53,21.72,2.4,28.08,2.69,49.71,2.69,25.58,0,49.34-5.56,73.45-12.28,10.22-2.85,21.53-7.21,31.16-11.7,13.52-6.3,26.78-13,39.1-21.23,12.05-8.05,18.85-13.96,29.57-22.29l34.04-34.75c4.05-4.55,7.35-9.52,11.02-14.38,1.49-1.96,2.34-3.21,3.72-5.28,2.41-3.62,4.32-6.64,6.67-10.27l6.47-10.99c12.94-21.68,23.12-50.17,28.68-74.5,8.27-36.26,8.05-58.33,4.96-95.02-1.52-17.98-6.41-36.33-11.75-53.33-4.44-14.12-10.31-27.31-16.82-40.33-.99-2-1.75-3.5-2.95-5.51-5.48-9.16-10.37-18.64-16.71-27.21-2.55-3.45-4.78-6.81-7.33-10.14-2.47-3.23-5.04-6.54-7.8-9.66-6.92-7.77-13.63-15.51-21.17-22.76-1.08-1.05-1.28-1.05-2.34-1.89l-11.7-10.52c-6.13-5.46-13.08-10.45-19.87-15.05C401.92,24.4,359.95,7.24,313.29,2.06c-5.06-.56-10.98-.95-15.95-1.51-2.83-.32-6.05,.13-8.89-.11-16.44-1.36-40.14,.58-56.08,3.77-14.51,2.92-27.63,6.25-41.52,10.87-4.54,1.51-8.42,2.9-12.81,4.65-4.32,1.73-7.86,3.52-12.17,5.29-11.91,4.92-28.11,14.27-39.29,21.56-8.82,5.76-16.89,12.27-25.2,18.72-3.37,2.62-6.06,5.44-9.38,8.09-5.56,4.44-12.26,12.16-17.53,17.4l-8.19,9.27c-9.78,10.5-21.92,29.27-28.73,41.11-9.95,17.27-17.82,35.29-24.11,54.2-.82,2.46-1.6,4.58-2.21,6.78-1.32,4.73-2.37,8.92-3.6,13.86-4.41,17.62-7.62,40.63-7.62,62.22H0Z"/>
  </g>
</svg>