<?xml version="1.0" encoding="UTF-8"?>
<svg id="Calque_2" data-name="Calque 2" xmlns="http://www.w3.org/2000/svg" viewBox="0 0 2500 923.06">
  <defs>
    <style>
      .cls-1 {
        fill: #b7b5a7;
      }

      .cls-1, .cls-2, .cls-3 {
        fill-rule: evenodd;
      }

      .cls-2 {
        fill: #fff;
      }

      .cls-3 {
        fill: #f1efda;
      }
    </style>
  </defs>
  <g id="midground">
    <g>
      <path class="cls-2" d="M0,4.99V868.98c12.23,0,40.88-3.96,51.45-9.73,3.55-1.94,8.38-7.72,11.77-8.62,.75,3.19,8.74,15.9,11.02,18.2l8.47,6.49c7.06,4.38,14.09,5.52,22.16,7.07,4.43,.85,7.72,1.8,12.34,2.61,5.03,.89,7.55,1.76,12.52,2.44,17.65,2.41,21.11,3.05,39.16,2.43,.97-.03,.92,0,1.46,0,8.64,.02,29.67-3.78,38.84-5.44,9.76-1.77,21.37-10.25,26.68-18.18,12.93,3.01,22.22,4.76,36.02,4.76,32.62,0,33.62-9.89,40.1-12.24,2.02,4.22,3.36,9.04,6.11,12.92,5.58,7.88,12.78,13.47,21.31,18.12l12.68,7.02c.97,.52,2.03,1.21,3.05,1.71,14.9,7.18,44.77,12.58,61.52,12.58,40.5,0,77.9-5.8,109.57-27.05,7.64-5.13,9.38-12.09,12.78-19.17,11.85,0,28.84-1.93,38.48-7.74,2.87-1.73,6.73-4.7,8.42-7.22,4.74,3.18,4.74,5.26,12.2,9.55,20.73,11.94,49.42,14.51,73.06,11.14,27.07-3.86,40.69-7.87,66.22-18.07,14.57-5.82,28.78-12.68,41.83-21.38,2.28-1.53,3.98-2.5,6-4.2,13.49-11.26,15.72-11.82,26.93-26.09,6.26-7.97,7.77-11.77,9.92-21.35,.72-3.21,1.69-5,2.02-8.8,.52-5.98-3.26-18.31-7.91-22.63-1.36-1.26-1.7-1.25-3.05-2.39-4.69-3.98-10.82-8.04-17.88-8.63,1.42-2.11,4.24-3.94,6.51-5.72,2.61-2.04,4.46-3.95,6.28-6.64,1.87-2.76,3.24-5.17,4.21-8.7,2.03-7.34,2.97-15.89-.23-22.92l-5.23-9.04c14.84,0,38.55-4.43,51.65-10.21,5.03-2.22,9.5-4.41,14.29-6.79l31.45-20.21c1.78-1.72,3.88-3.69,5.36-5.51,5.77-7.11,8.04-14.78,5.86-23.75-.52-2.14-1.4-3.47-1.89-5.59,1.37,.66,7.95,1.67,10.13,2.11,16.91,3.38,36.58,.03,50.56-6.68,4.38-2.11,9.32-4.98,12.9-8.18,3.93-3.5,8.18-7.29,8.66-13.09,6.58,0,17.83-1.23,22.74-3.08,12.26-4.63,32.2-15.98,35.73-28.85,1.28-4.65,2.02-10.26,2.02-15.65,23.35,0,47.53-5.22,67.88-15.72,12.69-6.55,25.7-12.94,33.78-25.36,14.44-22.2-1.88-33.86-3.11-38.45,2.28-.19,4.23-1.29,6.11-2.05,9.35-3.78,19-7.45,27.47-13.31,8.99-6.22,14.38-12.37,18-22.79,2.55-7.33,2.53-13.45,2.12-21.01-.86-16-17.77-34.15-30.49-42.93-1.58-1.09-3.33-1.91-5.16-3-3.22-1.92-7.45-3.86-11.08-5.23-18.13-6.85-44.59-11.08-64.22-6.07-21.62,5.51-8.93,4.67-18.61-4.91-6.49-6.43-23.67-13.64-33.2-12.29-8.36,1.18-10.37,1.31-16.03,5.1,0-3.6,.34-9.44-.16-12.76-1.05-7-3.57-12.83-6.86-18.97-4.62-8.62-10.81-14.76-18.67-20.08-11.2-7.57-49.22-16.27-62.46-14.66-12.27,1.5-25.31,2.47-34.47,11.12-1.73,1.64-1.94,1.75-3.8,2.99-4.65-3.12-4.38-4.29-10.86-7.49-16.1-7.95-22.31-2.03-31.28-2.03,3.09-13.26,3.78-16.54-.82-31.13-.7-2.22-1.68-3.57-2.93-5.91-1.34-2.52-1.78-3.26-3.5-5.34-2.07-2.51-6.47-6.75-8.95-8.72-15.6-12.39-47.67-20.28-68.09-20.28-13.53,0-26.57,1.34-39.42,4.76-13.39,3.56-25.72,8.83-36.99,16.71-3.8,2.66-6.59,5.4-9.75,8.6-1.6,1.62-2.57,3.01-4.03,4.8-1.49,1.83-2.28,3.22-3.39,5.45-1.64,3.27-4.29,9.62-4.29,14.07-12.89-.29-13.5-3.88-29.32,1.95-2.15,.79-4.34,1.43-6.48,2.35-2.16,.93-4.54,2.29-7.02,2.5,0-8.05-4.25-13.35-9.45-17.74l-2.59-2.17c-1.16-.93-1.55-1.17-2.77-1.99-12.99-8.73-30.34-8.01-45.69-8.01s-36.65,7.65-48.75,17.86c-1.97,1.66-2.85,3.16-4.95,4.57-7.54-5.05-7.4-9.47-20.6-16.1-8.02-4.03-21.3-4.29-33.09-4.29,.5-1.86,1.15-2.32,1.95-4.17,.81-1.87,1.46-3.08,2.13-4.67,1.02-2.42,2.45-7.44,3.12-10.47,2.46-10.98-.61-22.87-6.51-31.68-6.84-10.21-9.31-14.63-19.84-20.94-5.55-3.33-10.75-7.07-16.63-9.88-2.83-1.35-7.14-2.88-9.9-3.69-30.49-8.92-48.49-13.29-81.54-9.77-7.8,.83-13.91,2.35-20.74,5.77-12.24,6.13-21.68,11.97-29.45,23.57-2.96-.07-3.71-.68-7.48-.68,0-10.22-.19-17.11-7.21-24.74l-2.09-1.99c-9.41-7.44-19.14-5.9-30.8-5.9,4.79-9.05,17.67-11.55,17.67-38.07,0-6.72-6.1-11.61-11.15-14.68-6.39-3.89-12.25-4.35-22.16-4.35,5.39-10.19,6.12-13.27,6.12-25.15,0-2.84-1.28-5.55-2.32-7.88-4.17-9.36-18-18.98-28.51-22.47-4.32-1.44-12.56-3.3-17.46-3.62-12.14-.78-30.25,1.33-40.87,8.71-3,2.09-5.27,4.83-8.27,6.69-3.21,1.99-5.66,6.04-9.3,7.01-.71-2.68-3.48-4.98-5.71-6.52-11.73-8.09-38.18,1.1-41.19,14-3.28-.27-6.82-2.04-10.88-2.04s-5.16,.68-9.52,.68c.81-1.11-.16,.15,.97-1.06l3.69-4.47c2.9-5.94,1.99-12.31-.37-18.46C59.33,7.31,44.98,1.45,32.57,.29c-7.53-.71-15.2-.08-22.78,1.58C5.49,2.82,3.7,4.13,0,4.99H0ZM2141.79,802.36c1.27,1.05-.85,1.83-1.67,3.09-.65,1-.6,1.1-.95,1.76-1.62,3.04-3.1,5.86-2.68,9.9,.27,2.59,1.09,5.87,1.99,8.26,4.97,13.22,12.56,18.49,24.08,26.9,11.65,8.5,33.42,12.12,47.93,13.25,2.88,.22,7.19,.86,9.34,.66,2.5-.24,6.2-1.23,8.96-1.29,0,16.18,8,20.79,13.01,27.1,5.36,6.75,14.64,11.87,23.01,14.37,6.06,1.81,12.48,5.04,18.48,6.67l19.87,4.6c7.14,2.07,35.39,5.05,45.25,5.05l17.09,.1c4.65-.24,3.78,.84,14.11-.16l26.59-1.28c3.94,.01,4.99-.54,8.14-.7,7.76-.4,18.21-.98,25.57-2.3l15.4-2.96c3.31-.41,5.4-.06,8.13-.7l15.35-3c6.94-1.72,14.82-3.62,21.2-6.68V253.79c-20.11-4.68-40.04-.06-59.68,4.9-16.58,4.18-27.89,9-42.82,17-22.62,12.13-41.81,29.81-52.01,54.03-2.21,5.25-6.59,18.29-6.59,24-3.86-.32-6.32-1.54-10.01-2.22-5.29-.98-4.23-1.42-10.43-.55-9.8,1.38-28.5,7.81-33.82,15.8-3.26,4.9-6.91,10.31-6.91,18.24-11.62-5.58-20.72-3.63-32.39,.24-6.49,2.16-6.16,4.37-10.43,7.24-11.71-7.84-16.83-6.59-29.86-4.03-2.99,.59-4.51,.96-6.97,1.87-2.56,.95-3.83,1.52-6.29,2.55-6.52,2.73-11.05,6.09-16.31,10.2-4.73,3.69-9.11,8.59-11.95,13.88-2.39,4.48-3.82,6.35-5.69,11.98-1.54,4.62-3,8.9-2.07,14.82,.91,5.8,.08,9.27,1.65,16.03-3.15-.26-5.06-1.56-8.64-2.24-13.05-2.49-27.13-.68-38.14,6.45-11.28,7.3-18.33,15.15-15.08,29.1-2.34-.2-8.03-2.12-10.61-2.98-12.54-4.16-28.43-3.18-34.93,9.1-7-3.36-18.41-3.4-27.19-3.4-16.15,0-28.64,6.83-41.06,15.35-13.8,9.46-18.75,25.53-18.75,42.43,0,9.52,4.96,19.37,8.84,25.15-19.5-4.54-37.85-5.36-56.07,3.74-7.88,3.93-14.45,9.56-18.85,17.18-4.04,7.01-3.93,12.54-3.93,20.54-10.61-2.47-29.48,.26-37.78,5.72-6.93,4.56-15.24,12.54-15.24,23.5l-12.24-.68c-15.76,0-27.54,5.34-39.13,13.2-5.85,3.97-5.73,11.72-5.73,18.75,0,4.37,1.92,5.41,2.72,8.83-4.41,0-7.71,.48-11.25,1.67-2.68,.89-7.73,2.66-9.79,3.81-11.61,6.45-12.8,13.72-10.07,25.64,.58,2.53,1.68,4.97,3.14,7.06,2.85,4.08,5.85,8.15,9.89,11.18,12.97,9.74,28.26,12.45,44.38,10.26,2.12-.29,8.03-1.1,10.41-1.15-4.36,8.23-2.54,13.39,2.34,20.77,6.66,10.06,24.17,18.65,37.09,18.65,8,0,21.78-4.76,24.47-4.76,.69,0,3.51,3.2,4.23,3.93,7.23,7.29,20.59,10.78,30.42,13.08,12.16,2.84,27.83,2.68,40.02,.59,10.81-1.86,28.48-7.9,38.16-12.83,2.25-1.15,4.56-2.23,6.79-3.41,2.34,10.07,11.28,15.22,19.14,20.28,7.42,4.78,27.38,8.61,36.85,10.05,6.02,.92,23.05,1.43,30.04-.02l29.46-5.88c2.61-.57,4.28-1.35,6.9-1.93,2.56-.57,11.49-2.72,13.53-4.13h0Z"/>
      <path class="cls-3" d="M920.57,477.74c.76-.76,3.75,1.11,.82,.27-.08-.02-1.96,.87-.82-.27h0Zm9.21-132.81c0,9.8,5.63,19.85,10.66,24.84,4.88,4.84,19.22,9.35,26.16,9.35,5.75,0,19.11-3.04,24.58-5.67,4.22-2.03,5.57-3.73,6.27-8.85,.43-3.11,.56-3.28,2.86-5.03,2.39-1.83,2.71-.88,4.43-3.46-3.39,.79-4.28,2.63-6.72,3.15-2.66,.57-6.66-.19-9.57,.29-1.17,.19-18.23,6.23-24.23,3.59-1.77-.78-4.59-3.05-5.5-4.41-6.22-9.33-10.65-11.23-3.93-24.28,1.54-3,3.35-5.55,6.15-7.66,9.05-6.77,13.77-4.19,21.44-3.55-2.67,3.64-6.76-1.22-5.46,3.98,1.09,4.38,5.34,10.74,9.39,12.48,8.29,3.56,17.08,1.93,21.81-5.19,2.4-3.6,1.88-7.02,1.88-11.27,0-11.7-19.66-22.35-32.22-22.35-10.39,0-14.45-.51-23.39,4.89-4.97,3-8.15,4.96-11.96,9.08-5.37,5.78-12.65,20.92-12.65,30.09h0Zm1507.1,50.62c16.33,0,29.59-11.85,29.59-28.93,0-11.62-18.41-11.87-18.41-2.63,0,6.53,2.41,4.24,5.92,3.95,0,4.04-1.11,7.14-3.89,9.92-2.18,2.18-6.54,4.54-10.58,4.54-1.56,0-3.18-2.08-4.97-3.58l-5.73-5.44c-8.6-8.92-8.77-14.49-2.07-24.12,3.81-5.47,3.49-4.31,9.47-6.97,3.31-1.47,6.97-4.07,10.89-4.89,2.46-.51,4.51-.6,6.8-1.09,3.39-.71,8.24-.41,15-1.47,3.88-.61,3.14-.11,6.8,.18,8.07,.63,7.27-.66,10.49,5.96,2.64,5.42,5.64,10.21,9.41,14.92,.71,.88,1.19,1.56,1.73,2.22,1.33,1.64,.25,1.28,2.67,1.93v-57.2c-14.67-3.42-11.6-3.95-29.59-3.95-9.18,0-13.46,1.73-20.78,3.55-11.56,2.88-22.83,9.98-30.01,18.64-2.26,2.72-2.88,5.04-4.93,7.55-1.94,2.37-3.96,4.56-5.42,7.08-3.36,5.81-4.25,12.73-4.63,19.72-.24,4.54-.67,5.01,.4,10.13,1.24,6.01,3.72,12.11,7.98,16.34,5.83,5.79,15.57,13.62,23.85,13.62h0Zm-232.12,64.43c0,10.33,4.53,16.35,13.14,20.39,9,4.23,22.37,1.99,22.37-11.19,0-3.07-1.53-4.6-4.6-4.6-6.25,0-5.79,2.58-8.55,4.6-12.64-2.95-9.46-12.89-3.12-17.58,8.38-6.21,14.28-5.7,23.6-2.9,2.89,.87,4.82,1.85,6.66,3.86,.98,1.07,1.33,1.83,2.19,3.07,1.02,1.47,1.53,1.84,2.22,3.04,4.12,7.35,1.53,16.06-4.07,21.54l-16.58,11.69c-6.9,4.7-5.28,7.79-10.38,8.69-10.31,1.81-19.43,.43-29.31-2.61-2.62-.8-4.98-2.44-7.34-3.84-3.74-2.22-15.15-11.53-18.07-15.46-7.64-10.28-14-15.21-26.94-17.77-10.36-2.05-18.05-1.07-28.4,1.96-2.62,.77-5.8,2.07-8.17,3.01-3.42,1.36-4.25,1.95-6.73,4.44-8.56,8.59-3.93,5.51-3.77,12.66,4.29-1,1.82,0,5.26,0,4.81,0,36.97-20.66,56.28,4.21,5.58,7.19,6.34,8.1,14.71,12.91,2.2,1.27,3.47,2.38,6.16,3.71,12.96,6.45,6.37,4.31,19.64,7.97,15.17,4.19,28.65,.65,34.65,2.83,9.84,3.59,16.23,2.13,25.81-4.58l12.56-10.44c7.87-7.87,14.3-21.05,14.3-32.39,0-15.75-8.37-28.84-22.62-34.58-17.64-7.11-37.96-2.3-50.83,8.47-5.46,4.58-10.05,10.9-10.05,18.88h0Zm-174.91,126.89c14.64,0,21.23-11.43,19.89-15.89-1.22-4.06-4.99-7.82-10.1-5.88-1.45,.55-1.8-.05-2.84,3.62-.64,2.23,.26,2.49,.94,4.34-2.3,0-13.15,2.19-13.15-5.26,0-13.59,27.12-17.58,41.87-10.31,12.15,5.98,5.86,25.21-.26,31.53-4.34,4.48-7.87,6.73-14.07,8.94-13.65,4.86-4.03,5.78-25.84,9.04-3.25,.49-7.21-.3-10.54-.77-23.27-3.35-23.35-12.31-49.1-20.6-10.58-3.4-27.83-4.74-38.15-1.48-17.51,5.53-9.46,3.88-21.06,8.53-6.43,2.58-13.7,9.8-13.7,15.89,0,1.72,.28,.7,1.09,3.51,.9,3.16-.87,1.3,1.54,3.06,.43-5.14,.92,.49,6.3-7.5,4.29-6.37,10.16-8.84,17.93-9.69,8.13-.9,5.02-1.88,17.85-1.88,15.58,0,33.79,6.61,46.16,14.99,9.57,6.48,19.83,9.42,33.34,10.71l34.91,1.91c10.91,0,24.08-9.36,31.07-16.27,4.07-4.02,6.76-8.77,9.47-14.19,6.41-12.8,6.56-22.37,.23-34.64-5.68-11.01-24.61-22.34-36.83-22.34-20.14,0-42.67,7.29-46.91,28.75-1.15,5.82,1.78,10.75,5.08,15.04,2.96,3.85,9.58,6.84,14.87,6.84h0ZM687.79,246.97c0,6.79,3.17,6.57,8.55,6.57,3.72,0,3.75-5.96,10.6-8.47,4.8-1.76,8.85-3.8,14.21-4.86,18.36-3.64,37.51-5.99,56.45-2.84,3.47,.58,5.97,1.35,9.12,2.06,1.88,.42,2.96,.45,4.4,.86,1.62,.46,2.8,.95,4.43,1.49l23.75,9.78c4.65,2.3,6.5,2.13,7.79,15.22,.36,3.65,.51,7.37,.62,9.47,.24,4.53-.67,7.2-3.26,10.7-.08,.11-.2,.27-.29,.37-2.7,3.3-9.11,7.47-10.3,8.77l-5.24,5.93c-2.4,2.42-3.45,3-6.28,4.89-1.44,.97-2.04,1.35-3.65,2.27-1.2,.68-.53,.07-1.64,.99-1.07,.89-.88,.37-1.42,1.87,9.39-4.97,10.24-5.34,19.46-8.82,10.99-4.15,11.48-9.39,17.96-10.97,4.4-1.07,5.4-3.21,9.54-4.93,3.46-1.44,17.73-7.28,19.97-8.96,4.77-3.59,3.26-6.02,8.04-6.42v-1.31c-2.73,.23-2.27,.89-4.09,1.11-4.41,.53,.42-1.8-11.04,.87,5.27-7.86,5.84-4.25,7.71-15.31,.83-4.9,1.15-5.26-.24-9.91-1.1-3.64-2.33-10.22-4.21-13.54-4.4-7.76-9.64-13.51-17.28-18.23l-7.15-4.03c-1.77-1.01-2.15-1.03-3.99-1.92-4.39-2.13-12.59-6.34-17.3-5.84-5.72,.6-4.33,1.1-9.47-.24-10.12-2.64-37.79-6.54-48.67-4.61l-30.73,7.41c-10.33,4.5-18.95,11.28-26.03,20-2.92,3.6-10.31,15-10.31,20.59h0Zm1754.34,204.47c-7.91,0-16.4-1.23-24.9-2.06-6.64-.64-20.58-6.84-26.29-13.16-2.38-2.63-3.99-3.93-6.21-6.94-4.88-6.64-7.05-6.18-7.05-19.92h-1.97c2.22,9.55-2.14,5.88,1.86,16.55,4.92,13.1,1.85,15.33,8.49,22.41,1.65,1.76,1.76,2.67,3.63,4.25l4.31,3.57c4.43,3.55,19.6,11.6,25.31,13.49,2,.66,4.5,1.22,6.46,1.43,6.59,.69,8.66,1.42,15.68,1.42s4.94-2.1,12.49,7.89c5.21,6.89,14.29,19.86,16.45,28.26,2.48,9.63,2.62,13.23,2.62,23.68,0,4.74-8.2,19.26-20.26,22.47-3.18,.84-2.35,.55-4.58,2.66-2.98,2.84-2.8,1.42-3.43,3.8,1.81,.48,5.62,4.35,6.4,6.08,3.24,7.14,6.32,5.8,13.31,4.97,.76,1.66,2.12,6.59,2.73,8.59,.45,1.49,.79,2.83,1.42,4.5,.59,1.56,1.03,2.67,1.52,4.4,3.96,14.11,6.49,21.48-1.78,32.52-4.4,5.87-15.7,14.36-24.33,17.1-2.1,.67-4.71,1.04-6.7,1.85-5.81,2.35,.4,2.88-11.89-.21-9.25-2.32-16.35-2.87-21.72-11.16-7.48-11.54-5.36-21.94,5.32-30.74,7.33-6.03,11.91-4.18,17.31-3.73-1.37,5.14-5.26,2.12-5.26,9.21,0,4.02,7.67,11.42,20.68,1.61,18.81-14.18-7.11-39.96-37.11-26.59-12.57,5.6-24.34,21.77-24.34,36.15s6.1,29.02,17.65,36.93c4.46,3.05,16.51,11.2,21.15,12.38,7.43,1.89,1.24,0,10.42,11.28,.95,1.17,1.42,1.5,2.44,2.82,9.16,11.83,29.53,16.82,44.34,16.82,15.73,0,19.11-4.86,23.68-5.92V396.22c-3.7,2.47-22.44,22.2-28.77,27.77l-19.38,15.47c-11.55,9.5-5.59,11.99-9.71,11.99h0Zm-118.36,193.29c0,23.92,1.43,12.82,5.13,26.43,3.76,13.85,5.94,13.85-5.5,21.19-6.41,4.1-17.92,7.61-25.93,7.61-11.08,0-16.5-.15-26.17-6.04-7.13-4.34-15.46-6.96-21.92-12.27l-6.02-5.82c-5.28-6.37-11.61-11.91-18.22-16.62-2.08-1.49-4-3.57-6.36-5.48-12.94-10.52-35.36-18.2-52.15-18.2-11.63,0-20.82,.32-32.24,3.27-20.55,5.32-37.43,18.99-47.71,21.32-6.66,1.52-13.09,1.91-19.9,3.12l-21.22,1.6c-2.22,.05-7.72-.55-9.96-.86l-34.01-.84c-29.42,0-52.04-1.33-70.84,23.84-5.39,7.22-9.25,17.76-6.1,26.79,.71,2.05,1.25,3.76,2.07,5.82,1.98,4.94,2.22,6.09,6.37,9.4,11.66,9.3,33.57,11.56,46.68,3.05,5.41-3.51,10.26-7.83,9.1-15.39-1.04-6.8-5.19-11.79-12.27-11.8-10.51,0-10.57,10.87-3.29,10.87h3.29c-.08,3.59-.86,3.69-3.84,4.71-7.67,2.64-16.76,2.79-23.44-1.77-2.35-1.61-2.28-2.42-3.36-5.19-2.94-7.56-2.91-9.93,2.54-16.64,.49-.6,.96-1.15,1.53-1.76l2.03-1.92c4.34-3.97,7.71-6.24,13.87-7.83,14.49-3.74,22.71-1.57,36.4,3.34,4.36,1.56,12.15,5.61,15.69,7.98-5.97,12.44,3.72,17.54,5.95,25.61,7.48,27.08-17.53,57.63-17.59,61.73-.11,7.1,9.12,13.47,14.27,17.2,5.05,3.66,10.19,5.58,16.3,7.37,2.03,.59,3.32,1.31,5.3,1.93l19.86,3.81c5,.38,10.74-.34,15.72,.07,6.08,.5,7.87,.87,14.32-.22l38.26-8.42c2.48-.55,3.81-1.18,5.96-1.93,1.65-.58,4.57-1.13,6.59-1.3-5.22,7.8-5.92,4.82-5.92,15.78,0,4.89,1.74,7.89,3.72,12.06,1.75,3.7,3.81,6.89,6.62,9.81,2.66,2.77,5.65,4.75,8.64,7.14,13.91,11.13,22.95,12.26,40.34,16.21,2.09,.47,4.79,1.06,6.6,1.29l18.9,.83c3.65,0,3.9-.66,7.24-.66,0,13.27,7.25,23.24,17.27,31.38,4.74,3.85,11.66,7.55,17.39,9.57,1.8,.64,2.73,.59,4.62,1.3,8.53,3.22,15.81,5.88,24.9,7.97,3.45,.79,5.69,1.23,9.18,2,9.68,2.1,9.52,2.15,19.36,2.99,10.96,.93,18.69,2.65,30.89,2.65h19.73c8.88,0,16.97-1.25,25.04-1.95,5.88-.51,5.56,1.27,16.76-.31,8.84-1.24,16.74-.91,25.09-2.51,7.68-1.48,16.27-3.27,23.88-3.75,6.06-.38,9.66-1.76,15.58-2.83,6.14-1.1,11.86-3.72,17.73-5.29,1.51-.4,1.73-.71,3.49-1.11v-188.69c-5.71,3.02-6.21,4.37-14,7.7-5.4,2.3-9.43,4.98-15.12,7.23-34.97,13.85-39.4,6.52-54.58,8.54-4.39,.59-9.28,1.35-12.72-.05-3.3-1.34-6.42-3.18-9.67-4.8-1.87-.92-3-1.41-4.77-2.47-1.77-1.06-3.46-1.85-4.99-2.9-4.77-3.3-12.54-8.68-15.42-13.51-3.72-6.24-6.83-15.39-6.83-22.76,6.52-4.36,5.27-4.08,7.34-10.41,.9-2.73-.23-.05,1.28-2.01,1.03-1.32,1.25-1.15,1.25-3.36,0-3.34-12.58-7.26-15.58-8.75-2.73-1.36-2.88-1.73-5.2-3.35-4.87-3.39-5.13-3.05-8.15-8.29-2.58-4.48-1.26-9.35-7.25-9.85-.37-1.61-.77-3.69-1.41-5.16-1-2.3-2.53-3.63-2.53-6.02,0-3.92,1.23-4.96,1.31-8.55-2.58,.69-5,4.99-5.85,7.3l-3.36,9.79h0ZM117.04,91.16c0,4.09,1.3,8.31,4.6,10.52-3.71,5.53-7.23,7.04-7.23,16.44-5.81,2.79-10.33,4.66-14.97,9.36-2.09,2.11-3.63,5.29-5.84,6.65-4.54,2.81-11.32,6.15-16.48,7.85l-20.85,4.13c-3.35,.74-7.35,2.01-10.24,2.25-1.23-2.33-1.65-4.25-2.52-6.68-1.18-3.26-6.9-5.94,1.07-19.76,2.48-4.3,4.86-7.07,9.42-8.99,5.64-2.37,13.45-4.73,19.7-3.41,3.37,.71,1.49,.41,3.9,2.02-1.04,4.46-1.99,6.36-6.47,6.98-7.74,1.07-9,14.06,1.87,14.06,7.82,0,9.9-1.16,16.17-4.21,16.22-7.89,15.17-26.25,2.4-36.71-13.06-10.71-34.2-6.2-48.37-.04-3.36,1.46-6.27,4.01-8.86,6.27-6.56,5.72-9.03,9.76-13.09,17.82-1,1.98-1.48,3.13-2.12,5.12-.64,2.03-.9,4.23-1.65,6.24-1.26,3.39-4.97,5.46-7.61,7.51-2.95,2.28-6.44,4.09-9.87,5.91V868.92c12.62-1.04,36.19-2.65,47.78-8.11l9.68-6.1c1.4-1.21,.87-1.64,5.67-4.86,.74,3.19,9.13,17.27,11.39,19.51l14.36,9.31c1.18,.55,1.7,.53,3.02,.94,5.44,1.66,10.73,1.91,16.35,3.38,7.9,2.06,32.86,6.97,40.37,6.97h20.38c7.26,0,22.35-2.54,29.54-4,10.2-2.06,16.23-1.6,25.62-8.58,4.37-3.25,7.96-8.45,11.91-11.1,20.57,4.79,30.27,5.47,50.59,3.9,7.31-.56,16.4-4.04,21.9-9,1.77-1.6,1.34-2.14,3.78-2.8,.08,3.58,4.3,11.14,6.09,13.63,8.29,11.57,21.77,18.71,34.24,24.93,16.09,8.05,21.44,6.98,37.89,11.43l26.99,2.6c9.36,0,20.33-.11,29.29-1.61,6.55-1.1,11.37-.14,18.93-2.11,3.21-.83,5.85-.88,8.95-1.57,2.88-.64,4.91-1.52,8.19-2.33,3.14-.78,5.16-1.42,8.01-2.51,7.68-2.95,14.65-5.16,21.93-8.97l7.02-3.5c4.22-2.54,8.77-5.39,11.73-9.31,2.08-2.76,6.61-10.25,6.94-14.11,6.89,0,8.82-.59,14.42-1.35,8.21-1.12,17.76-2.43,24.91-6.65,1.85-1.09,2.61-2.2,4.35-3.54,2.46-1.91,2.66-3.01,4.32-4.23l3.34,4.55c.09,.1,.23,.24,.32,.33,2.35,2.34,5.46,4.03,8.2,5.61,4.97,2.86,10.2,4.94,15.68,6.68l9.01,2.17c3.6,.57,5.55,1.27,9.27,1.9l42.27-.22c3.49-.49,5.9-1.61,9.28-1.91,6.97-.6,20.82-3.65,27.48-6.05,5.52-1.99,11.45-3.62,16.85-6.17,2.76-1.3,5.03-2.1,7.94-3.24,7.92-3.11,15.58-6.22,23.1-10.43,12.57-7.04,16.72-8.73,28.11-17.26l12.12-10.23c.59-.61,.7-.72,1.32-1.31l1.02-.96c6.24-5.58,14.02-15.35,17.38-22.72l4.7-18.31-1.31-9.2c-.68-2.35-.9-3.56-1.58-6.31l-2.25-4.33c-2.73-3.85-8.16-8.99-12.67-10.99l-11.12-4.01c1.26-1.72,4.83-3.78,6.85-5.64,7.73-7.13,12.22-15.17,12.22-26.58,0-9.61-3.23-13.42-7.89-20.38,9.04,0,19.03-1.23,27.12-3.12l23.98-6.92c9.39-4.03,18.74-8.71,27.49-13.93l18.45-12.45c2.24-1.73,3.1-3.55,5.03-5.49,1.3-1.31,3.84-4.15,4.77-5.75,7.04-12.23,.63-21.1,.33-24.65,11.95,2.78,24.26,4.03,36.77,2.58,4.49-.52,9.25-.88,13.28-2.5,8.67-3.51,16.2-7.41,23.79-13.03,4.89-3.63,6.79-5.96,8.36-12.68,4.34,0,7.44-.38,11.47-1.02,8.8-1.38,16.66-3.55,24.17-8.04,7.98-4.77,19.99-13.06,22.97-22.4,1.48-4.63,2.41-11.42,1.22-16.53,1.5-.4,5.26-2.87,6.68-3.85,2.28-1.58,3.58-3.37,6.47-4.05l1.41,1.89c-2.06,3.01-5.43,3.41-7.33,6,2.97,0,3.29-.34,5.36-.56,2.13-.24,4.27,.04,6.4-.18l27.42-5.46c2.23-.52,2.82-1.07,4.89-1.69,6.1-1.83,12.48-4.51,17.88-7.77,3.5-2.11,7.38-3.23,10.88-5.55,1.41-.94,.41-.36,2.03-1.26,1.4-.78,2.71-1.59,4.1-2.48,6.02-3.86,15.95-14.05,18.66-20.13,2.58-5.81,5.28-14.15,2.16-21.13-2.12-4.75-4.23-8.5-7.91-11.82-.1-.09-.25-.21-.35-.3-.1-.09-.25-.21-.35-.3-3.52-3.25-5.98-6.83-11.59-6.83-7.23,0-14.87,5.26-21.7,5.26-2.77,0-2.05-6.09-4.47-9.34-2.77-3.71-10.96-6.04-15.79-12.48-1.27-1.69-4.72-8.59-4.72-10.4,0-5.43,3.35-8.63,6.83-10.93,7.41-4.89,14.66-6.52,22.76-1.56,4.04,2.47,3.14,4.53,5.26,8.54-5.21,3.49-4.19,11.83,3.29,11.83,9.78,0,18.96-2.41,23.68-11.17,2.37-4.39,2.62-6.59,2.62-11.84,0-2.51-2.81-7.62-3.94-9.21-7.61-10.68-17.07-14.46-30.91-14.46-15.01,0-34.29,5.13-43.97,17.19l-6.29,7.51c-1.08,1.59-1.73,2.83-2.73,4.5-8.45,14.26-7.88,30.58,.4,45.07,.52,.91,1.36,2.19,2.15,3.11,4.05,4.75,2.87,4.32-.72,9.52-3.83,5.55-8.4,11.4-13.84,15.75l-16.15,13.44c-2.07,1.64-3.6,2.57-5.92,3.94-17.59,10.38-36.53,17.09-56.2,23.37-14.29,4.56-27.55,6.6-42.72,5.09-2.51-.25-5.86-1.09-8.64-1.22-20.31-1.03-16.25-1.43-31.79-8.32-11.69-5.18-28.05-17.52-28.05-31.78,0-4.98,.85-12.15,1.82-15.93,1.22-4.77,3.34-8.38,7.1-11.32,8.24-6.43,5.25-5.62,15.44-11.51,3.91-2.26,13.68-8.59,17.12-9.85,3.69-1.35,11.94,.4,15.8,1.19,13.56,2.79,14.8,5.14,24.91,11.91-2.1,9.02-.66,7.46-.66,16.44,0,.42-1.53,1.85-2.2,3.05-2.29,4.11-2.76,7.79-2.4,12.07-7.28,1.69-11.36,4.6-21.04,4.6-3.4,0-17.1-2.42-17.1-4.6,0-2.79,1.38-6.12,2.47-8.05,5.01-8.76,6.59-1.81,14.62-1.81s5.54-11.83-6.57-11.83c-2.55,0-6.8,1.44-8.77,2.41-2.79,1.37-5.14,1.86-7.21,3.96-4.05,4.11-7.03,9.71-7.03,15.98,0,8.79,6.58,14.25,13.73,17.18,22.94,9.38,58.83-4.08,67.38-20.24,7.82-14.78,7.53-26.2-2.56-39.31-2.27-2.95-2.66-2.46-5.07-4.79-3.39-3.27-6.46-6.17-10.34-8.73-12.93-8.54-27.16-12.72-44.08-13.13-8.3-.2-6.41-1.23-17.56,.15-15.29,1.91-31.98,5.87-45.96,10.59-7.54,2.54-18.71,8.62-25.35,12.78-7.63,4.79-15.33,10.17-22.08,16.06-1.99,1.73-2.97,2.28-4.91,4.29-6.2,6.4-6,1.98-24.17,2.14-10.05,.09-23.36-3.54-31.4-6.08-4.41-1.39-9.89-2.8-14.19-4.87-4.68-2.26-8.06-4.35-12.23-6.84-7.83-4.68-15.38-10.29-23.48-14.65-16.48-8.86-29.91-26.93-59.53-35.15-5.14-1.42-9.79-2.68-14.99-4.07-12.88-3.45-26-6.34-39.33-8.02-2.77-.35-5.94-.28-9.23-.63-13.84-1.49-26.61-3.71-40.48-6.2-3.07-.55-5.95-.89-8.41-1.45l-46.03-11.18c-9.55-2.64-22.3-4.9-30.53-7.61-5.01-1.65-9.32-3.07-14.47-4.6-5.11-1.52-9.26-2.74-13.96-4.44-19.88-7.19-49.55-18.38-67.81-27.53-18.66-9.36-31.48-15.64-48.79-26.83-4.02-2.6-7.86-4.56-11.84-7.23-3.99-2.67-7.25-5.25-11.17-7.9-2.2-1.49-3.26-2.15-5.34-3.86-12.54-10.3-24.54-19.36-36.12-30.94l-9.2-9.87c-6.6-6.52-16.46-18.13-21.1-26.24-16.43-28.67-24.17-48.12-19.31-81.54,1.54-10.58,2.52-11.71,6.39-19.91,1.07-2.28,1.16-4.58,2.28-6.92,3.94-8.19,4.29-10.8,4.29-20.04,0-11.06-7.35-20.38-18.1-22.66-2.4-.51-3.73-.18-6.14-.43-9.53-1-2.58-2.61-14.41,.88-16.2,4.79-22.46,5.97-36.03,16.57-3.63,2.84-8.17,7.51-8.17,13.53h0Z"/>
      <path class="cls-1" d="M256.25,106.96l-1.16,2.23c-4.52,9.56-13.49,16.04-20.75,23.43-1.7,1.73-2.39,2.32-4.42,3.74-2.39,1.67-2.89,1.33-2.89,5.26,4.86,1.13,3.31-.26,9.02-2.53,8.86-3.52,13.16-2.8,22.2-2.18,3.58,.25,6.79,1.22,9.28,2.95,6.6,4.56,9.11,11.26,9.11,19.44,0,3.08-3.4,7.14-3.4,7.48,0,5.89,4.25,3.63,9.35,4.25,7.34,.89,7.33,3.91,10.36,3.91,4.51,0,6.15-6.15,9.01-9.34,7.17-8,8.64-8.18,18.56-14.07,11.98-7.11,25.31-7.86,43.8-7.86,17.05,0,53.52,6.99,67.08,15.16,6.82,4.11,20.06,11.01,24.28,17.18,7.78,11.38,10.64,10.85,14.09,27.42,.81,3.88-.45,7.12-1.46,10.94-1.33,5.07-2.89,10.94-6.26,14.81l-6.8,6.79c-1.95,1.6-2.51,1.63-2.58,4.9,7.96,1.9,5.81-4.76,22.43-4.76,2.95,0,4.2,.95,7.27,1.56,7.68,1.52,15.77,.5,25.52,9.82,3.55,3.4,6.55,4.71,7.69,9.98,.43,1.96,.14,2.19,.8,3.96,.82,2.2,.85,.64,1.54,3.22,3.86-1.85,4.87-1.93,8.23-5.36,.1-.1,.23-.25,.33-.35l4.63-3.52c4.93-2.99,8.93-5.94,13.99-8.45,5.01-2.48,9.65-4.96,15.89-6.54,12.6-3.18,27.89-2.69,40.82-.54,11.76,1.95,28.26,8.13,28.26,22.72,0,2.21-3.55,8.16,1.36,8.16,2.08,0,4.53-3.89,6.39-5.16,10.75-7.32,27.96-8.7,40.9-5.43,1.82,.46,3.67,1.12,5.04,1.76,2.18,1.01,4.07,2.04,6.8,2.04,2.89,0,3.5-3.76,2.88-5.55-1.68-4.91-8.93-3.94-.14-18.22,5.66-9.19,16.77-16.89,26.57-21.01,11.16-4.69,10.3-5.09,23.16-8.11,9.93-2.33,24.21-4.79,34.63-3.63,2.63,.29,5.22-.08,7.89,.27,17.15,2.23,33.72,6.42,48.4,14.81,6.47,3.7,12.55,9.03,15.92,16.03,3.87,8.03,5.01,18.49,1.99,26.3-1.88,4.86-12.4,18.72-16.79,21.95-2.07,1.53-3.12,1.64-4.48,3.67l10.04-3.55c16.53-5.13,10.93-10.72,36.18-10.72,6.95,0,17.26,4.63,19.8,10.79,1.1,2.67,1.39,5.52,5.35,5.52,2.8,0,3.57-1.1,4.78-2.69,3.09-4.06,7.17-8.15,11.96-10.47,6.75-3.27,18.23-5.19,27.44-5.19,13.38,0,41.35,6.58,49.85,11.33,6.54,3.65,12.02,8.33,15.88,14.71,8.21,13.56,11.32,26.35,4.16,41.14-3.39,7.02-13.74,15.1-20.95,18.47-5.97,2.79-17.21,5.83-25.44,3.69-2.34-.61-8.21-4.46-9.69-5.95-6.23-6.27-6.8-18.34-.41-24.45,7.08-6.77,13.1-7.54,20.59-2.52-.2,2.43-1.64,8.16,2.72,8.16,10.8,0,10.95-21.07-14.95-21.07-6.75,0-18.88,10.5-20.94,17.13-4.9,15.77,.13,26.57,13.23,34.76,6.16,3.85,14.25,5.02,21.43,3.98,3.87-.56,7.58-1.44,11.01-2.58l9.47-4.12c6.25-3.36,10.5-7.34,15.69-12.18,6.35-5.93,8.62-13.98,10.59-15.24,1.38-.88,7.96-2.75,10.46-3.13,12.13-1.85,33.21,1.52,36.44,15.37-1.51,2.25-2.04,2.78-2.04,5.44,0,4.28,5.47,4,8.15,2.75,3.5-1.62,5.44-3.46,9.42-4.89,17.93-6.43,36.52-5.12,54.47-.59,11.13,2.81,16.46,4.67,25.37,9.98,16.79,10,33.84,30.36,26.06,53.7-2.36,7.09-5.6,11.49-11.6,15.59-6.9,4.71-14.06,8.99-21.98,12-1.86,.71-3.48,1.13-5.04,1.76-13.11,5.26-30.14,8.48-43.19,1.93-4.8-2.41-9.13-5.08-12.72-9.02-3.34-3.67-5.12-10.81-1.95-16.1,5.51-9.18,22.77-10.76,27.38-3.89-.92,3.46-4.08,3.53-4.08,6.11,0,6.36,10.88,2.23,10.88-2.71,0-7.47,.03-9.98-7.45-13.62-10.59-5.14-22.19-4.4-30.81,3.91-9.94,9.59-8.88,25.27,.45,34.61,.14,.14,.55,.53,.69,.67,20.23,18.69,35.83,10.06,44.62,14.51,3.23,1.63,6.24,3.24,8.11,6.17,4.18,6.57,5.18,11.1,1.57,18.53-6.36,13.07-23.1,21.55-35.93,27.29-20.39,9.12-25.07,9.57-50.65,12.57-4.53,.53-29.87-1.52-25.16,8.22,2.55,5.26,6.18,.88,6.18,7.47,0,10.39-7.34,15.68-14.95,21.08-12.15,8.63-22.13,11-37.4,10.86-17.92-.17-.86,6.06-12.99,15.56-20.55,16.1-41.53,15.62-66.25,10.68-12.46-2.49-22.89-5.67-34.57-10.29-6.64-2.63-15.87-8.66-20.47-14.2l-1.87-2.21c-4.83-5.35-8.06-10.48-11.82-16.73-8.05-13.35-9.31-36.29-5.83-53.67,1.35-6.76,2.98-8.51,5.62-13.42,2.71-5.04,6.08-9.09,9.63-13.48,4.89-6.06,10.52-11.28,17.01-15.62,7.94-5.29,10.82-5.96,18.9-8.96,12.39-4.6,36.81-8.78,48.07,.86,1.82,1.56,5.26,4.79,6.28,6.64,.75,1.36,1.06,2.57,1.93,4.19,3.8,7.06-.34,16.64-6.16,20.77-6.06,4.31-13.88,8.46-21.62,4.97-3.68-1.66-6.7-7.66-2.01-10.23,2.04-1.12,4.76-.89,4.76-4.08,0-5.78-9.42-4.59-13.83,2.49-3.17,5.08-2.89,8.31-.33,13.72,1.07,2.25,1.85,3.41,3.94,4.9,6.55,4.67,19.57,5.61,26.96,1.07,11.76-7.23,19.3-14.02,19.3-28.97,0-8.99-6.15-16.05-11.71-21.59-15.31-15.25-49.29-8.71-67.16-.87-9.12,4.01-17.63,9.85-24.27,16.51-9.94,9.97-20.6,22.59-24.24,36.93-4.44,17.46-3.19,44.71,4.25,58.86,5.08,9.66,11.01,18.46,18.61,26.25,3.7,3.79,8.05,6.29,12.49,9.26,10.01,6.71,28.76,11.38,31.38,13.49,4.25,3.42,7.56,8.29,8.47,14.02,1.22,7.69-6.38,15.35-11.98,19.54-6.61,4.95-13.66,8.88-21.02,12.97-12.81,7.12-17.97,9.42-31.58,13.28-20.32,5.78-30.3,4.74-49.03,6.7-2.92,.3-6.17,2.23-6.17,5.39,0,6.8,18.35,5.66,18.35,23.79,0,8.82-3.94,15.72-10.47,20.79-9.46,7.35-18.07,9.36-18.07,15.23,0,3.38,4.41,4,7.76,4.48,7.01,1.01,14.55,1.28,20.23,5.6,7,5.33,7.27,6.18,9.72,15.44,1.54,5.84,.72,4.49-.71,10.12-3.76,14.82-2.68,10.5-10.5,21.45-.97,1.35-1.36,2.19-2.55,3.57-8.88,10.18-24.08,22.1-36.22,28.35l-34.92,16.06c-17.81,7.15-20.66,8.03-39.21,11.78-1.99,.4-2.96,.77-4.97,1.15-26.48,4.93-58.28,6.33-81.68-7.47-12.12-7.15-9.12-7.85-9.12-15.35,0-2.2-1.88-4.08-4.08-4.08-7.05,0-8.69,15.76-25.43,20.12-3.13,.82-6.09,1.08-9.17,1.71-10.34,2.09-28.61,.2-28.61,6.05,0,6.95,3.48,1.91-1.35,10.89-3.35,6.23-14.49,12.19-21.33,14.69-11.4,4.18-21.61,9.02-33.56,11.3-4.88,.94-10.3,1.69-15.71,2.64-3.78,.67-11.94,1.3-16.42,1.25l-36.89-.48-15.24-2.43c-18.68-2.73-35.16-10.9-50.1-21.28-5.48-3.8-14.67-14.09-14.67-21.36,0-2.69,1.97-6.81,2.66-8.93,.92-2.82-.2-6.71-4.02-6.71-3.47,0-5.35,2.97-7.3,4.94-6.09,6.15-14.03,13.54-23.12,15.62-17.46,4-39.02,1.02-55.32-4.23-3.9-1.25-6.15,.57-7.24,4.2-1.58,5.24-8.62,9.99-13.18,12.65-5,2.92-36.61,7.6-44.06,7.6-43.35,0-29.54-1.6-66.8-7.97-8.11-1.39-12.5-3.24-18.86-7.65-4.34-3-5.44-6.8-8.45-11.26-1.3-1.92-1.48-1.81-2.66-4.14-2.36-4.66-4.57-17.37-11.41-12.64-1.97,1.37-3.7,5.19-5.83,7.14-12.79,11.7-22.4,11.05-39.13,13.89l-16.78,1.57v9.52c12.96,0,26.35-2.13,38.82-4.68,11.69-2.39,15.64-7.8,24.4-13.67,.59,2.55,9.31,16.93,11.05,18.86,1.25,1.38,2.63,2.06,4.31,3.16,15.91,10.47,20.98,9.13,39.52,12.81,14.94,2.97,26.22,5.26,41.38,5.13,2.22-.02-.15-.05,1.52-.03,13.68,.17,49.13-4.21,58.78-9.79,2.88-1.67,5.96-4.41,8.52-6.44,1.68-1.33,2.49-1.79,4.01-3.47,6.05-6.68,1.22-3.53,22.96-.21,11.1,1.69,32.01,1.33,42.57-2.92,4.49-1.8,13.61-8.62,14.84-8.95,.19,8.4,7.09,15.52,12.3,21.01,.1,.1,.23,.25,.33,.34l2.15,1.93c13.92,11.56,34.36,20.71,52.24,24.57,21.71,4.69,45.12,6.24,67.07,3.31,13.17-1.76,17.63-.79,33.36-5.39,14-4.09,42.83-13.74,51.83-25.66,3.04-4.03,5.22-8.32,6.38-13.33,11.45,0,29.74-2.3,39.41-8.17,3.64-2.2,5.77-5.4,8.85-7.46,9.7,14.49,39.33,21.89,56.42,21.75,4.47-.04,6.71,1.07,10.67,.51,6.27-.88,14.28-.51,20.91-1.56,31.6-4.98,42.63-10.34,69.8-20.61l15.08-7.35c14.27-7.92,20.47-10.62,34.22-22.2,6.22-5.24,11.94-10.67,16.81-17.17,6.6-8.81,8.92-11.69,11.19-22.8,2.4-11.74,3.26-9.48-.6-22.37-1.35-4.5-2.69-6.84-5.95-9.68-6.63-5.76-11.37-8.57-20.56-10.71,3.96-5.91,12.5-6.99,16.91-19.79,3.76-10.88,2.44-25.86-6.04-33.23,6.22,0,14.91-1.29,20.97-2.15,10.94-1.56,25.84-5.49,36.12-10.1,7.88-3.53,15.69-7.95,22.99-12.36,2.54-1.53,4.67-2.69,7.21-4.35,7.65-5.01,19.66-14.25,22.42-23.8,2.04-7.07,.44-14.11-2.31-19.3,8.06,0,16.87,4.11,24.94,3.23,9.86-1.06,16.79-.73,25.62-3.65,7.38-2.43,13.68-5.97,19.45-9.78,11.84-7.82,9.85-9.93,12.91-16.32,7.04,0,16.75-.64,21.95-2.52,3.34-1.21,5.79-2.16,8.64-3.59,1.3-.65,2.84-1.32,4.05-2.07,1.05-.65,1-.75,1.98-1.42,5.53-3.85,11.04-7.87,15.9-12.65,6.54-6.45,7.3-15.61,7.3-24.65,6.68,0,14.68-.97,20.6-1.83,17.84-2.59,31.47-5.98,47.73-14.12,13.7-6.86,26.29-13.7,34.44-26.74,6.64-10.6,7.12-22.68-1-32.59-1.45-1.77-2.59-2.31-3.9-4.26,4.34-.36,14.65-5.1,19.43-7.08,5.9-2.45,12.04-6.13,16.8-9.71,5.54-4.17,9.65-7.04,12.96-13.55,1.41-2.78,2.94-6.36,3.72-9.2,3.39-12.5,2.49-22.79-2.93-34.21-5.51-11.61-15.6-21.05-26.06-28.32l-9.22-5.05c-1.66-.93-1.91-1.03-3.7-1.74-10.72-4.28-20.59-5.69-31.56-7.87-13.45-2.68-28.59-1.56-41.53,2.29-2.77,.82-4.56,1.67-7.23,2.29-3.41-6.45-6.28-12.02-13.68-14.87-10.75-4.14-20.71-8.06-33.11-4.73-3.89,1.05-5.09,2.28-8.27,3.96,0-7.55,2.4-10.72-2.12-23.03-8.39-22.86-25.84-33.86-49.48-38.89-18.82-4.01-38.3-7.62-57.42-.88-5.19,1.83-9.37,3.62-13.17,7.22-1.49,1.41-1.89,2.12-3.56,3.24-8.85-5.92-2.41-4.68-17.94-10.61-5.72-2.18-12.98-1.63-18.64-.14-1.86,.49-3.71,1.18-6.24,1.24,2.12-9.09,4.37-16.26,1.28-25.75-3.62-11.1-4.74-14.46-13.68-22.35-2.09-1.85-2.45-2.9-5.04-4.48-13.88-8.45-23.27-11.7-38.97-15.41-25.62-6.06-41.39-4.46-66.92,1.07-7.93,1.72-14.25,4.54-21.33,7.9-2.1,1-4.24,2.3-6.53,3.67-12.96,7.72-23.42,15.31-28.54,30.6-.61,1.83-.71,2.07-.94,3.82-.86,6.39,.35,2.57-16.45,2.57-3.39,0-4.72,.69-7.39,1.44-6.98,1.97-13.68,4.15-19.8,7.39-.35-15.58-16.67-26.78-30.09-29.05-14.38-2.43-30.52-3.48-44.97-.48-7.28,1.51-15.3,4.91-21.43,8.48-14.36,8.36-12.45,9.37-17.7,12.89-6.37-4.27-14.17-19.29-36.68-20.11-1.67-.06-5.99-.12-8.85-.35-2.38-.19-1.71-.44-3.84-.3-1.55,.11-2.98,.36-5.01,.36,.42-1.79,.43-1.39,1.2-2.88l3.75-8.48c6.87-19.58,2.39-30.85-8.62-47.52-6.8-10.3-15.09-12.81-24.89-19.3-5.29-3.49-7.85-4.77-14.7-7.05-11.57-3.85-22.62-7.23-34.92-9.26-9.67-1.6-28.6-3.34-39.14-1.75-4.06,.61-8.15,.1-12.16,.76-14.02,2.28-24.02,8.44-35.17,15.81-5.15,3.4-8.72,8.71-12.09,13.74-2.6-.22-5.56-1.14-8.16-1.36,.12-5.26,1.92-9.14-1.56-16.79-1.25-2.75-3.96-6.52-5.87-8.41-9.56-9.42-21.48-6.75-33.35-6.75,1.83-2.74,4.4-4.36,6.61-6.99l6.16-8.11c4.42-5.29,6.1-14.86,6.07-21.49-.08-16.34-19.16-21.19-33.79-21.19,6.3-9.42,9.45-24.1,3.28-34.55-2.33-3.95-7.09-8.9-10.74-11.69l-9.07-5.89c-18.72-8.59-43.06-9.32-61.66-.23-5.48,2.68-6.73,5.48-10.89,8.15-2.05,1.31-3.72,2.27-5.58,3.94-1.86,1.67-2.66,3.55-5.27,4.25-.8-3.42-6.33-7.65-9.57-8.78-9.47-3.28-21.68,.29-29.19,6.04-1.83,1.4-3.34,2.82-4.85,4.66-1.75,2.13-2.58,3.17-3.29,6.23-5.75-3.85-14.36-2.6-21.07-2.04,6.46-9.65,8.8-10.1,5.32-22.31-1.53-5.35-6.37-11.85-11.2-14.63C39.39-.51,20.65-1.84,5.84,3.35c-2.61,.92-3.43,1.76-5.84,2.32v6.8C15.01,4.52,49.07,2.51,56.7,23.06c5.07,13.65-4.97,24.96-4.58,25.95,.49,1.25,6.2-.51,11.78-.51,5.24,0,12.51,1.78,13.75,7.39,1.12,5.1-4.41,11.99-2.87,15.73,2.74,1.13,14.2-6.38,29.45,1.81,5.12,2.75,7.65,4.84,11.05,9.34,3.2,4.24,5.31,9.63,4.87,15.18-.28,3.44-2.58,13.87-3.94,16.47-6.07,11.62-11.36,12.87-19.85,20.94-2.52,2.39-10.01,5.03-13.65,6.74-7.25,3.41-23.25,6.14-30.2,.05-1.66-1.45-5.61-7.96-5.61-10.71,0-9.13,4.48-13.63,9.61-18.26,11.71-10.58,30.64-6.42,15.54,6.71-4.16-.35-7.48-3.68-7.48,2.72s10.75,4.98,15.75-1.25c16.02-19.97-13.14-31.77-31.89-12.86-2.76,2.78-5.17,4.97-7.09,8.55-8.3,15.47-.3,35.5,18.56,37.43,7.23,.74,12.17,.8,18.69-.86,4.53-1.15,18.71-6.95,22.41-9.54,4.77-3.34,13.96-11.09,17.18-15.44,2.99-4.03,6.09-7.81,7.94-13.13,3.21-9.21,4.33-17.81,2.55-27.09-2.25-11.74-14.82-22.66-25.78-25.88-4.45-1.31-9.25-.84-13.32,.11-1.98,.46-2.33,.77-4.61,.83,1.41-6.05,2.06-7.81-1.36-12.92,1.55-2.93,1.57-3.7,4.26-5.93,1.44-1.19,4.41-3.18,6.15-4.04l7.15-3.05c20.85-6.58,20.08,9.6,20.89,11.27l1.65,1.75c3.67-.98,6.49-7.64,9.02-10.69,6-7.23,35.62-15.14,46.04-15.14,15.68,0,31.71,5.33,40.79,16.99,1.91,2.45,4.57,5.41,4.5,9.41-.06,3.72-.71,9.4-2.04,12.78-.8,2.02-4.09,7.52-5.49,8.79-2.44,2.22-6.49,4.34-6.49,8.46,0,2.72,3.26,4.08,5.44,4.08,1.42,0,3.57-2.13,5.22-2.94,9.05-4.44,36.25-.9,36.25,18.57,0,1.55-.18,1.86-.62,2.78-1.36,2.87-.27,1.31-2.1,1.98v1.36c2.56-.61,1.54-1.02,2.04,0h0Zm573,184.22c.07,.07,.2-.3,.2-.2h0s-.27,.13-.2,.2h0Zm1590.54,73.42l1.65,9.22c3.58,10.47,17.9,16.61,29.87,10.75,12.55-6.14,4.86-22.73-4.34-16.57,.54,2.02,.55,1.62,2.15,2.61,1.34,.83,3.29,.87,3.29,2.15,0,8.75-16.11,11.29-23.91,1.48-12.56-15.8,8.45-34.11,30.71-34.11,12.48,0,21.1,1.05,30.35,11.11,2.64,2.87,5.18,6.32,6.76,10.24,1.31,3.26,2.99,10.53,2.99,14.68h.68v-.92c0-5.85-.05-11.72,0-17.57v-3.74c-.14-5.08-1.25-5.17-6.62-10.57-5.71-5.75-11.19-8.49-18.65-10.58-6.32-1.77-18.69-1.3-25.97,.98-7.16,2.24-20.59,11.91-23.65,15.78-2.63,3.32-5.32,9.32-5.32,15.08h0Zm-90.4,258.31c0,8.11,1.65,17.44,4.26,24.29,3.83,10.06,8.26,14.22,15.28,20.75,2.05,1.91,4.31,3.94,6.68,5.56,5.95,4.07,10.04,6.5,17.96,6.5-.87,2.39-4.67,3.75-6.75,5.48-15.23,12.71-5.17,37.22,9.61,46.05,7.78,4.65,13.83,7.7,23.12,10.18,4.8,1.28,5.25,1.85,10.67,2.24,4.27,.3,7.12,1.31,12.29,1.31,13.14,0,22.24,.17,34.84-3.22,12.16-3.27,15.27-3.11,28.38-9.01l14.26-6.81v-11.56c-4.42,2.96-8,6.64-12.89,8.86-16.67,7.55-19.94,6.02-34.45,10.42-7.96,2.41-26.94,2.8-36.08,1.61-1.84-.24-5.74-.33-8.1-.75l-19.26-6.56-10.91-6.76c-2.89-2.22-6.05-5.58-7.82-9.18-4.64-9.47-3.45-18.02,3.58-25,2.75-2.72,6.23-6.34,10.37-7.3v-2.71c-9.21-2.15-9.37-1.34-16.87-6.24-2.4-1.57-4.3-3.09-6.8-4.76l-10.25-8.78c-9.19-9.54-12.3-21.94-12.3-35.28,0-7.87,6.6-20.2,9.5-25.84,1.81-3.53,6.62-9.35,9.8-11.95l7.1-6.49c19.52-15.67,47.68-24.51,72.41-15.8,15.61,5.51,26.13,15.41,31.45,31.77,1.97,6.06,2.07,10.54,.65,17.17-1.41,6.59-2.85,9.03-6.91,14.17-1.3,1.65-.74,1.14-2.26,2.49l-1.48,1.23c-.43,.36-1.06,.91-1.49,1.23-6.28,4.76-17.07,6.97-25.66,6.97-12.64,0-29.22-12.91-29.22-25.83,0-5.67,1.22-10.08,4.75-12.23,2.72-1.66,8.75-4.76,12.91-4.76,4.79,0,8.15,7.2,2.49,7.73-2.97,.28-2.38-3.07-2.49,1.79,14.9,3.47,12.51-15.63,0-15.63s-25.83,10.33-25.83,23.11c0,6.04,1.66,10.91,4.94,15.45,13.27,18.39,32,23.26,54.1,15.04,29.72-11.05,33.18-46.73,14.22-69.77l-6.47-6.44c-3.45-3.21-7.03-6.02-11.32-8.39-8.18-4.52-21.52-7.76-30.99-7.76-19.38,0-38.17,6.02-53.7,16.99-1.03,.74-1.67,1.26-2.67,2.1-.1,.09-.26,.22-.36,.31l-13.11,12.04c-3.45,3.41-6.5,7-8.79,11.6-3.87,7.76-10.42,19.47-10.42,30.37h0Zm9.52-267.83c-4.56-3.06-12.21-4.08-17.67-4.08-7.28,0-16.12,3.27-22.22,6.34-7.09,3.57-11.94,5.82-16.25,12.97-3.19,5.27-4.36,7.29-4.36,15.36-12-5.76-23.17-4.05-34.76,.59-3.47,1.39-6.08,3.94-8.06,6.89-11.92-6.31-11.88-7.41-26.12-5.05-9.48,1.58-17.72,4.34-25.59,9.08-13.34,8.03-27.82,26.79-27.82,41.51,0,6.46-.45,16.57,2.04,21.75-5.96-.5-5.94-3.4-23.79-3.4-14.86,0-39.43,12.02-39.43,29.23,0,2.36,.88,5.43,1.36,7.48-7.91-1.85-14.48-5.44-24.47-5.44-8.74,0-19.47,4.01-21.07,10.88-3.71-.09-7.17-2.06-11.04-2.55-18.69-2.37-32.38,.23-48.55,8.89-6.48,3.47-11.61,7.43-16.47,12.76-2.18,2.39-4.08,5.98-5.9,9.05-7.68,12.93-7.44,32.99,.1,45.57,1.13,1.88,2.83,4.28,3.02,6.5-7.71-3.7-21.19-3.4-30.59-3.4-17.01,0-40.68,11.68-46.61,29.53-1.65,4.99-1.56,9.87-.86,14.63-12.42,.05-27.3-1.3-37.89,5.75-3.86,2.58-7.72,5.45-10.36,9.35-2.42,3.56-5.44,9.29-5.56,14.83l-16.31-.68c-7.52,0-33.93,8.12-38.44,16.62-3.95,7.44-2.59,16.6,1.06,23.49-9.38,0-32.63,6.88-32.63,19.72s4.25,21.28,13.8,29.02c10.49,8.51,21.7,11.08,35.82,11.08,7.77,0,13.16-1.49,19.71-2.04-1.89,7.07-6.12,8.45,1.89,21.22,4.3,6.85,12.42,11.17,19.56,14.43,10.68,4.87,20.09,4.23,31.05,1.91,4.43-.94,6.97-2.02,10.7-2.89,7.04,4.71,5.38,7.8,21.66,13.69,21.49,7.77,47.51,8.38,68.74-.09,9.77-3.9,20.69-7.35,29.91-12.23,.11,4.7,2.16,7.12,4.82,10.14,.09,.1,.24,.25,.33,.35,4.43,4.63,11.67,9.83,17.77,12.14,11.82,4.47,23.95,7.14,37,8.54,16.89,1.82,25.59-.65,40.4-3.58,6.65-1.32,12.94-2.24,19.08-4.03l17.91-5.2c-1.61,2.4-2.46,2.39-4.09,5.42-4.48,8.3-3.12,14.19,1.14,22.68,2.33,4.63,2.99,6.31,6.51,9.8,5.81,5.73,11.36,9.79,18.32,14.31,8.38,5.44,51.5,15.88,63.08,10.32,0,10.83,4.21,18.06,10.72,24.63,5.82,5.87,8.68,10.56,20.74,15.29l17.77,6.71c2.79,1.13,5.68,2.04,8.84,2.71,3.76,.81,6.71,1.68,10,2.23,4.3,.73,5.93,1.56,9.83,2.41,6.78,1.48,14.28,1.79,21.23,2.56,3.03,.33,7.65,1.16,10.97,1.26l32.65,.66,25.27-1.96c4.29-.5,5.09,.71,8.7,.62l24.76-2.47c3.32-.47,5.83-.29,8.64-.87,5.24-1.1,9.86-2.04,15.52-2.84,2.84-.4,4.78-.4,8.1-.73,2.23-.22,5.27-.93,8.07-1.45,2.12-.39,4.47-.9,7.37-1.46,6.71-1.3,16.65-6.07,22.04-6.52v-10.87c-10.36,4.97-21.42,7.32-33.14,9.69-8.59,1.73-17.55,1.97-27.64,4.3-3.93,.91-5.51,.63-9.72,1.15-9.34,1.15-20.35,1.9-30.1,1.84-10.51-.06-19.58,2.1-29.89,2.06-17.05-.07-44.25-.91-60.32-4.27l-33.4-9.43c-10.19-3.69-20.45-6.9-27.48-15.34-1.67-2-3.41-3.11-4.98-5.21-2.54-3.4-6.89-11.64-3.13-14.82,1.88-1.6,4.91-2.87,4.91-6,0-8.82-19.35-2.04-24.47-2.04-13.18,0-36.95-3.72-47.82-9.28-4.75-2.42-8.35-5.54-12.48-8.59-12.94-9.57-18.87-26.93-8.99-36.47,1.93-1.87,6.59-5.49,9.47-6.17v-2.04c-6.11,.13-37.79,12.91-66.61,12.91l-19.04-.67c-12.15-.65-37.66-3.95-48.25-11.56-22.99-16.5-12.58-11.96-1.65-26.12,3.98-5.15,8.26-8.11,10.22-14.94,6.97-24.4,3.09-46.27-16.57-62.43-5.4-4.43-10.65-7.78-16.92-10.95-29.77-15.05-78.32,1.46-65.39,32.08,3.09,7.31,13.04,13.01,21.65,13.01,7.29,0,18.35-.88,18.35-10.2,0-5.17-1.79-7.48-6.12-7.48s-2.72,4.93-2.72,8.16c-6.14,1.44-12.97,1.73-18.33-2.05-4.82-3.4-6.68-11.69-3.87-16.76,2.56-4.61,8.4-8.08,13.28-9.83,13.17-4.74,26.08-4.01,38.66,1.63,10.84,4.86,19.69,11.89,25.62,21.96,6.43,10.93,5.83,15.71,5.83,28.16,0,2.06-2.78,12.42-3.61,14.07-4.04,7.99-19.82,21.82-28.79,26.28-8.45,4.19-17.12,7.96-26.06,10.64-23.31,6.99-52.24,7.4-73.15-6.38-8.24-5.43-2.33-9.25-9.1-9.25-1.45,0-1.5,.82-3.82,1.61-1.41,.49-3.13,.83-4.43,1.01-3.69,.52-6.63,1.2-10.12,1.44-7.22,.5-13.56,.5-19.71-2-5.1-2.07-9.68-5.23-14.6-7.83-2.57-1.36-9.85-10.48-9.85-13.26,0-7.21,7.06-6.59,7.48-11.56-4.35,0-7.84,1.36-11.55,1.36-16.6,0-44.21-5.56-54.48-19.61-1.85-2.54-3.27-4.71-4.67-7.57-7.05-14.32-2.03-16.94,11.76-22.26,3.05-1.17,7.13-1.92,10.72-2.19,1.87-.14,15.28,1.57,8.62-8.01-2.78-4-2.68-9.4-1.81-14.4,.6-3.46,2.93-4.27,5.82-5.73,2.85-1.44,5.7-2.82,8.54-3.7,5.52-1.7,13.31-3.11,19.68-3.45,8.5-.45,17.24,3.3,18.92,3.3,10.18,0-3.42-15.67,13.8-26.31,7.05-4.35,10.82-7,20.18-7,5.39,0,10.9-.08,16.03,.96,4.14,.83,11.16,4.07,11.16-2.32,0-3.93-2.72,.41-2.72-14.95,0-7.53,8.87-15.34,14.73-18.57,14.65-8.08,30.36-8.07,46.64-6.09,2.26,.28,3.42,.07,5.51,.6,4.7,1.2,10.14,2.1,13.18,5.17,6.4,6.46,13.12,12.11,22.29,14.42,14.25,3.58,31.08,4.93,45.43,0,21.01-7.23,29.92-40.37,14.14-50.06-10.43-6.41-20.87-8.22-32.88-4.71-18.13,5.29-12.19,25.25-1.94,25.25,4.3,0,6.5-2.73,8.84-4.76-2.58-.21-10.88-3.44-10.88-6.11,0-5.6,3.82-6.26,8.27-7.36,8.12-1.99,16.21-.58,23.24,3.71,12.54,7.66,3.01,33.02-12.32,37.11-9.01,2.41-19.04,3.87-27.82,.32-7.05-2.86-12.67-1.77-19.52-6.32-6.87-4.55-8.49-7.42-13.83-12.68-2.72-2.68-3.95-4.14-6.01-7.58-4.87-8.16-7.07-13.92-7.07-24.19,0-17.32,9.3-28.19,23.26-35.89,12.55-6.92,29.23-10.53,43.53-7.11,8.16,1.95,14.3,9.7,17.59,.27,5.05-14.48,29.21-13.77,40.89-7.78,2.73,1.39,2.72,2.92,5.23,2.92,3.43,0,1.36-2.59,1.36-5.44,0-13.04-1.57-16.82,11.58-24.45,7.04-4.08,14.43-5.46,23.77-5.46,7.04,0,19.16,2.8,21.75,6.8,5.78,8.91,11.97,16.5,20.67,22.83,20.3,14.77,42.65,15.38,63.08,1.79,11.04-7.35,14.81-18.83,14.81-32.1,0-10.33-13.27-19.71-23.11-19.71s-19.97,5.11-23.95,11.4c-3.91,6.18-1.77,13.42,4.89,16.5,5.16,2.38,12.77,3.71,12.94-4.11-3.14-.84-1.44-1.34-4.18-1.94-4.38-.95-5.44-.28-8.06-4.17,4.82-9.11,19.94-12.87,28.05-5.61,4.91,4.39,5.26,6.96,5.26,13.09,0,24.57-36.18,36.13-58.07,22.73-5.52-3.38-10.99-6.44-15.53-10.98-3.47-3.46-9.11-11.07-10.77-15.74-8.03-22.48-6.6-42.27,13.21-59.04,4.9-4.15,9.9-6.81,16.39-9.43,2.96-1.19,6.9-2.46,10.01-2.91,3.97-.57,7.44-1.46,11.46-1.46,6.56,0,13.17,7.48,16.31,7.48,3.63,0,3.62-6.4,10.22-10.18,7.52-4.31,26.97-8.62,33.29,.66,1.45,2.14,1.09,2.7,4.08,3.4,2.87-4.29-.86-9.4,6.92-21.63,1.85-2.91,1.91-3.35,4.89-5.31,9.29-6.11,26.63-12.22,38.95-8.18,1.41,.46,2.65,.85,3.9,1.54,2.45,1.34,1.77,.98,2.64,3.48,3.93,11.38,9.5,20.03,20.64,25.58,4.63,2.3,11.53,5.88,17.9,5.88-1.91,7.16-8.15,3.89-8.15,22.43,0,15.09,16.8,27.76,29.85,30.65,5.89,1.3,10.75,3.34,18.41,3.34,9,0,24.46-3.07,32.71-6.03,7.07-2.54,13.05-6.05,18.95-10.28,7.69-5.5,13.78-12.5,19.61-19.81,1.61-2.01,2.93-3.54,4.65-5.55,4.4-5.17,4.94-7.05,4.97-13.57v-1.49c-.02-5.85,0-11.7,0-17.55v-1.85h-.68c0,3.05-1.85,12.78-2.62,15.05-3.1,9.11-8.19,14.45-13.7,21.66-5.11,6.69-11.23,12.33-17.95,17.39-14.85,11.19-27.39,12.53-45.93,12.53-3.98,0-7.44-.55-10.63-1.6-10.32-3.4-16.95-4.28-23.85-13.54-6.24-8.36-7.87-17.11-2.7-26.8,1.03-1.92,1.05-2.04,2.73-3.39,2.54-2.04,2.41-.41,2.5-4.3-6.53,0-12.29-1.38-17.81-4.62-10.58-6.21-22.92-9.7-25.32-33.14-.82-8.04,6.97-27.57,12-35.53,4.71-7.46,9.67-14.57,15.91-20.8,8.82-8.81,19.32-15.56,30.54-21.12l13.25-6.46c3.98-1.98,8.99-4.02,13.5-5.53l31.55-7.88c26.72-3.51,13.72-1.55,39.23-1.55v-4.08c-14.34-.32-13.55-3.72-31.85-.58l-25.23,5.35c-14.3,3.7-19.52,4.55-34.32,11.9-9.8,4.86-25.39,12.59-33.5,20.21-1.79,1.68-2.68,2.22-4.41,3.75-7.84,6.89-14.46,16.78-19.85,25.7-2.31,3.83-3.26,6.65-5.14,10.49-2.16,4.4-6.8,19.33-6.8,24.47h0ZM253.53,106.96l.2,.2s-.13-.27-.2-.2h0Z"/>
    </g>
  </g>
</svg>