<?xml version="1.0" encoding="UTF-8"?>
<svg id="Calque_2" data-name="Calque 2" xmlns="http://www.w3.org/2000/svg" viewBox="0 0 2500 1276.96">
  <defs>
    <style>
      .cls-1 {
        fill: #fbf8e4;
        fill-rule: evenodd;
      }
    </style>
  </defs>
  <g id="Calque_1-2" data-name="Calque 1">
    <path class="cls-1" d="M2500,1276.96V245.89c-36.99,0-71.42,6.05-108.64,8.85-17.73,1.34-58.81,7.35-77.38,11.33-7.78,1.67-16.03,3.38-23.89,5.68-15.34,4.48-30.65,8.51-46,12.34-16,4-30.68,8.83-46.19,12.96-7.63,2.03-16.11,3.57-24.56,5.01-21.12,3.6-58.99,9.5-79.39,7.81-4.69-.39-9.31,.31-14.02-.37-29.61-4.28-61.38-7.43-90.66-12.44-4.08-.7-7.84-2.17-11.38-3.01-11.85-2.79-23.9-5.17-36.04-8.72-27.63-8.08-70.07-16.52-93.01-25.28-13.36-5.1-33.9-10.48-44.16-14.98-18.57-8.14-24.71-10.14-43.46-15.68-19.32-5.71-24.54-6.03-43.62-7.52-10.93-.86-24.67-1.94-35.55-.29-8.45,1.28-19.5,.19-28.29,1.28l-38.17,5.79c-22.55,4.59-59.27,7.61-81.31,4.69-19.94-2.63-40.07-3.85-50.64-22.9-2.48-4.47-.63-7.76,.73-11.5,3.48-9.55,7.34-15.66,12.92-23.85,1.31-1.93,1.81-3.09,3.01-4.98,3.39-5.32,14.6-21.71,18.89-25.07,13.28-10.41,20.47-13.44,30.05-29.1,11.32-18.5,12.25-26.01,10.82-46.66-.57-8.24-4.2-14.07-8.4-20.37-9.05-13.59-16.91-20.71-32.33-26.82-14.09-5.58-15.68-7.64-33.22-11.53-26.93-5.97-38.83-1-63.94,3.88-10.94,2.13-33.4,10.54-43.76,15.38-16.12,7.52-23.26,10.03-36.31,22.83l-20.05,16.72c-1.52,1.2-3.08,2.12-4.75,3.24-1.61,1.07-2.69,1.93-4.31,2.88-1.73,1-2.96,1.36-4.91,2.28-6.79,3.24-14.34,5.53-21.82,7.75-13.9,4.13-20.95,7.67-37.08,7.68-7.87,0-40.98,4.68-50,8.34-7.61,3.08-14.06,7.34-19.59,13.18l-5.71,5.48c-8.38,8.31-13.13,20.65-9.33,33.71,8.38,28.81,28.53,30.61,20.43,49.32-2.57,5.94-16.53,19.06-21.16,22.79-2.6,2.1-5.48,4.23-8.27,6.12l-28.8,15.96c-18.99,6.34-38.09,11.95-57.71,15.83-13.69,2.7-26.96,3.58-40.78,1.5-17.29-2.6-36.45-1.11-53.35-5-4.36-1-7.53-1.56-11.66-2.73-14.14-3.98-29.22-9.54-41.41-17.73-14.82-9.95-28.1-22.23-35.14-39.19-6.86-16.53-2.69-20.45-2.73-38.03,0-4.73,.4-10.41-.2-14.99-2.57-19.72-15.27-45.59-29.16-59.56-2.79-2.8-4.92-3.94-7.95-6.43-3.02-2.48-5.57-4.22-8.88-6.3-6.39-4.01-11.85-7.55-18.8-10.77-13.98-6.48-28.6-11.48-43.7-15.45-31.68-8.31-54.64-15.3-87.13-15.17-8.64,.04-19.47-1.54-27.92-1.65l-29.61,.03c-6.09-.03-8.69,.85-14.36,.82-11.57-.05-44.85,1.96-55.64,3.5-4.56,.65-8.39,1.6-12.37,2.02l-63.99,9.54c-7.93,1.31-17.05,3.56-24.04,5.53-8.09,2.28-14.55,4.98-22.09,7.48-14.73,4.88-29.55,9.52-45.49,13.65-19.47,5.05-27.37,6.84-46.03,13.12-17.13,5.76-31.08,8.03-50.08,8.26-5.38,.07-7.13,1.44-13.22,.5-4.59-.71-10.21,.06-14.24-.95-4.14-1.03-7.01-2.36-10.77-3.61-13.71-4.56-25.8-13.62-33.52-25.63-2.1-3.27-3.38-6.35-5.2-9.99-3.27-6.54-7.36-12.75-10.88-18.69-9.55-16.1-37.49-27.71-55.71-33.01C134.74-.27,107.49-1.47,85.27,1.86c-8.61,1.29-17.82,1.32-26.46,3.11C47.16,7.38,9.93,15.73,0,20.49c0,53.04,.8,100.82,.8,154.26V1276.96H2500Z"/>
  </g>
</svg>